<svg width="172" height="30" viewBox="0 0 172 30" fill="none" xmlns="http://www.w3.org/2000/svg">
<path d="M40.9556 23.5209L38.6849 7.56258C38.1016 3.45842 34.581 0.416748 30.4354 0.416748H11.5614C7.41583 0.416748 3.8952 3.45842 3.3119 7.56258L1.04119 23.5209C0.582884 26.7293 3.06191 29.5834 6.29089 29.5834C7.70748 29.5834 9.04074 29.0209 10.0407 28.0209L14.7487 23.3334H27.248L31.9353 28.0209C32.9352 29.0209 34.2893 29.5834 35.6851 29.5834C38.9349 29.5834 41.4139 26.7293 40.9556 23.5209ZM18.9152 12.9167H14.7487V17.0834H12.6655V12.9167H8.4991V10.8334H12.6655V6.66675H14.7487V10.8334H18.9152V12.9167ZM27.248 10.8334C26.1023 10.8334 25.1648 9.89592 25.1648 8.75008C25.1648 7.60425 26.1023 6.66675 27.248 6.66675C28.3938 6.66675 29.3313 7.60425 29.3313 8.75008C29.3313 9.89592 28.3938 10.8334 27.248 10.8334ZM31.4145 17.0834C30.2687 17.0834 29.3313 16.1459 29.3313 15.0001C29.3313 13.8543 30.2687 12.9167 31.4145 12.9167C32.5602 12.9167 33.4977 13.8543 33.4977 15.0001C33.4977 16.1459 32.5602 17.0834 31.4145 17.0834Z" fill="#2A7AE4"/>
<path d="M124.081 22C122.664 23.4167 121.014 24.125 119.131 24.125C117.964 24.125 116.864 23.8917 115.831 23.425C114.814 22.9583 113.923 22.3167 113.156 21.5C112.406 20.6833 111.806 19.725 111.356 18.625C110.923 17.5083 110.706 16.3083 110.706 15.025C110.706 13.8083 110.923 12.6667 111.356 11.6C111.806 10.5167 112.415 9.575 113.181 8.775C113.965 7.95833 114.881 7.31667 115.931 6.85C116.981 6.36667 118.123 6.125 119.356 6.125C121.022 6.125 122.447 6.475 123.631 7.175C124.831 7.875 125.731 8.81667 126.331 10L123.756 11.9C123.306 11.0167 122.672 10.3417 121.856 9.875C121.056 9.40833 120.181 9.175 119.231 9.175C118.481 9.175 117.789 9.33333 117.156 9.65C116.539 9.96667 116.006 10.4 115.556 10.95C115.123 11.5 114.781 12.1333 114.531 12.85C114.298 13.5667 114.181 14.325 114.181 15.125C114.181 15.9583 114.315 16.7417 114.581 17.475C114.848 18.1917 115.214 18.8167 115.681 19.35C116.148 19.8833 116.698 20.3083 117.331 20.625C117.981 20.925 118.681 21.075 119.431 21.075C121.147 21.075 122.697 20.2667 124.081 18.65V17.4H120.506V14.875H126.93V24H124.081V22Z" fill="#464646"/>
<path d="M135.62 24.25C134.57 24.25 133.62 24.075 132.77 23.725C131.92 23.3583 131.195 22.8667 130.595 22.25C129.996 21.6333 129.529 20.9167 129.196 20.1C128.879 19.2833 128.721 18.425 128.721 17.525C128.721 16.5917 128.879 15.7167 129.196 14.9C129.512 14.0667 129.971 13.3417 130.57 12.725C131.17 12.0917 131.895 11.5917 132.745 11.225C133.612 10.8583 134.579 10.675 135.645 10.675C136.712 10.675 137.662 10.8583 138.495 11.225C139.345 11.5917 140.062 12.0833 140.645 12.7C141.245 13.3167 141.695 14.0333 141.995 14.85C142.312 15.6667 142.47 16.5167 142.47 17.4C142.47 17.6167 142.462 17.825 142.445 18.025C142.445 18.225 142.428 18.3917 142.395 18.525H132.27C132.32 19.0417 132.445 19.5 132.645 19.9C132.845 20.3 133.104 20.6417 133.42 20.925C133.737 21.2083 134.095 21.425 134.495 21.575C134.895 21.725 135.312 21.8 135.745 21.8C136.412 21.8 137.037 21.6417 137.62 21.325C138.22 20.9917 138.628 20.5583 138.845 20.025L141.72 20.825C141.237 21.825 140.462 22.65 139.395 23.3C138.345 23.9333 137.087 24.25 135.62 24.25ZM139.02 16.35C138.937 15.3667 138.57 14.5833 137.92 14C137.287 13.4 136.512 13.1 135.595 13.1C135.145 13.1 134.72 13.1833 134.32 13.35C133.937 13.5 133.595 13.7167 133.295 14C132.995 14.2833 132.745 14.625 132.545 15.025C132.362 15.425 132.254 15.8667 132.22 16.35H139.02Z" fill="#464646"/>
<path d="M150.585 24.25C149.535 24.25 148.585 24.075 147.735 23.725C146.885 23.3583 146.16 22.8667 145.56 22.25C144.961 21.6333 144.494 20.9167 144.161 20.1C143.844 19.2833 143.686 18.425 143.686 17.525C143.686 16.5917 143.844 15.7167 144.161 14.9C144.477 14.0667 144.936 13.3417 145.535 12.725C146.135 12.0917 146.86 11.5917 147.71 11.225C148.577 10.8583 149.544 10.675 150.61 10.675C151.677 10.675 152.627 10.8583 153.46 11.225C154.31 11.5917 155.027 12.0833 155.61 12.7C156.21 13.3167 156.66 14.0333 156.96 14.85C157.276 15.6667 157.435 16.5167 157.435 17.4C157.435 17.6167 157.426 17.825 157.41 18.025C157.41 18.225 157.393 18.3917 157.36 18.525H147.235C147.285 19.0417 147.41 19.5 147.61 19.9C147.81 20.3 148.069 20.6417 148.385 20.925C148.702 21.2083 149.06 21.425 149.46 21.575C149.86 21.725 150.277 21.8 150.71 21.8C151.377 21.8 152.002 21.6417 152.585 21.325C153.185 20.9917 153.593 20.5583 153.81 20.025L156.685 20.825C156.202 21.825 155.427 22.65 154.36 23.3C153.31 23.9333 152.052 24.25 150.585 24.25ZM153.985 16.35C153.902 15.3667 153.535 14.5833 152.885 14C152.252 13.4 151.477 13.1 150.56 13.1C150.11 13.1 149.685 13.1833 149.285 13.35C148.902 13.5 148.56 13.7167 148.26 14C147.96 14.2833 147.71 14.625 147.51 15.025C147.327 15.425 147.219 15.8667 147.185 16.35H153.985Z" fill="#464646"/>
<path d="M168.425 24L164.625 18.325L162.825 20.1V24H159.476V5.75H162.825V16.825L168.075 10.925H171.65L166.775 16.475L172 24H168.425Z" fill="#464646"/>
<path d="M52.7718 6.25H55.8216L62.5713 24H59.0215L57.3715 19.575H51.1719L49.547 24H45.9972L52.7718 6.25ZM56.7466 17.15L54.2967 10.175L51.7469 17.15H56.7466Z" fill="#2A7AE4"/>
<path d="M64.168 5.75H67.5178V19.8C67.5178 20.2833 67.6345 20.6583 67.8678 20.925C68.1011 21.1917 68.4345 21.325 68.8678 21.325C69.0678 21.325 69.2844 21.2917 69.5177 21.225C69.7677 21.1583 70.001 21.075 70.2177 20.975L70.6677 23.525C70.2177 23.7417 69.6927 23.9083 69.0928 24.025C68.4928 24.1417 67.9512 24.2 67.4678 24.2C66.4179 24.2 65.6013 23.925 65.018 23.375C64.4514 22.8083 64.168 22.0083 64.168 20.975V5.75Z" fill="#2A7AE4"/>
<path d="M76.1269 24.25C74.777 24.25 73.7521 23.8167 73.0521 22.95C72.3521 22.0833 72.0022 20.8 72.0022 19.1V10.9H75.352V18.375C75.352 20.3917 76.0769 21.4 77.5268 21.4C78.1768 21.4 78.8018 21.2083 79.4017 20.825C80.0184 20.425 80.5183 19.825 80.9017 19.025V10.9H84.2515V20.15C84.2515 20.5 84.3098 20.75 84.4265 20.9C84.5598 21.05 84.7681 21.1333 85.0514 21.15V24C84.7181 24.0667 84.4348 24.1083 84.2015 24.125C83.9848 24.1417 83.7848 24.15 83.6015 24.15C83.0015 24.15 82.5099 24.0167 82.1266 23.75C81.7599 23.4667 81.5433 23.0833 81.4766 22.6L81.4016 21.55C80.8183 22.45 80.0684 23.125 79.1518 23.575C78.2351 24.025 77.2269 24.25 76.1269 24.25Z" fill="#2A7AE4"/>
<path d="M95.3799 13.8C94.3633 13.8167 93.4551 14.0167 92.6551 14.4C91.8551 14.7667 91.2802 15.325 90.9302 16.075V24H87.5804V10.9H90.6552V13.7C90.8885 13.25 91.1635 12.85 91.4802 12.5C91.7968 12.1333 92.1385 11.8167 92.5051 11.55C92.8718 11.2833 93.2384 11.0833 93.605 10.95C93.9884 10.8 94.355 10.725 94.705 10.725C94.8883 10.725 95.0216 10.725 95.105 10.725C95.205 10.725 95.2966 10.7333 95.3799 10.75V13.8Z" fill="#2A7AE4"/>
<path d="M100.652 24.25C100.018 24.25 99.4268 24.15 98.8768 23.95C98.3268 23.7333 97.8519 23.4417 97.4519 23.075C97.0519 22.6917 96.7353 22.25 96.5019 21.75C96.2853 21.25 96.177 20.7 96.177 20.1C96.177 19.4833 96.3103 18.9167 96.5769 18.4C96.8603 17.8667 97.2436 17.4167 97.7269 17.05C98.2268 16.6833 98.8185 16.4 99.5018 16.2C100.185 15.9833 100.935 15.875 101.752 15.875C102.335 15.875 102.902 15.925 103.452 16.025C104.018 16.125 104.518 16.2667 104.951 16.45V15.7C104.951 14.8333 104.701 14.1667 104.202 13.7C103.718 13.2333 102.993 13 102.027 13C101.327 13 100.643 13.125 99.9768 13.375C99.3101 13.625 98.6268 13.9917 97.9269 14.475L96.9019 12.35C98.5852 11.2333 100.402 10.675 102.352 10.675C104.235 10.675 105.693 11.1417 106.726 12.075C107.776 12.9917 108.301 14.325 108.301 16.075V20.15C108.301 20.5 108.36 20.75 108.476 20.9C108.61 21.05 108.818 21.1333 109.101 21.15V24C108.535 24.1167 108.043 24.175 107.626 24.175C106.993 24.175 106.501 24.0333 106.151 23.75C105.818 23.4667 105.61 23.0917 105.526 22.625L105.451 21.9C104.868 22.6667 104.16 23.25 103.327 23.65C102.493 24.05 101.602 24.25 100.652 24.25ZM101.602 21.8C102.168 21.8 102.702 21.7 103.202 21.5C103.718 21.3 104.118 21.0333 104.402 20.7C104.768 20.4167 104.951 20.1 104.951 19.75V18.25C104.551 18.1 104.118 17.9833 103.652 17.9C103.185 17.8 102.735 17.75 102.302 17.75C101.435 17.75 100.727 17.95 100.177 18.35C99.6268 18.7333 99.3518 19.225 99.3518 19.825C99.3518 20.3917 99.5684 20.8667 100.002 21.25C100.435 21.6167 100.968 21.8 101.602 21.8Z" fill="#2A7AE4"/>
</svg>
